# xmcd CD database file
#
# Track frame offsets:
#	150
#	30690
#	52104
#	101600
#	114355
#	137325
#	186214
#	214158
#	239161
#
# Disc length: 3473 seconds
#
# Revision: 1
# Processed by: cddbd v1.4PL0 Copyright (c) Steve Scherf et al.
# Submitted via: CDex 1.50
#
DISCID=800d8f09
DTITLE=Eric Clapton - Live Session 99
DYEAR=1900
DGENRE=Blues
TTITLE0=My Father's Eyes
TTITLE1=Hoochie Coochie Man
TTITLE2=Reconsider Baby - She's Gone
TTITLE3=Ramblin' On My Mind
TTITLE4=Bellbottom blues
TTITLE5=Tears In Heaven - Change The World
TTITLE6=Gin House
TTITLE7=Cocaine
TTITLE8=Layla
EXTD=
EXTT0=
EXTT1=
EXTT2=
EXTT3=
EXTT4=
EXTT5=
EXTT6=
EXTT7=
EXTT8=
PLAYORDER=
